<?xml version="1.0" encoding="UTF-8" standalone="no"?>
<svg
   xmlns:dc="http://purl.org/dc/elements/1.1/"
   xmlns:cc="http://creativecommons.org/ns#"
   xmlns:rdf="http://www.w3.org/1999/02/22-rdf-syntax-ns#"
   xmlns:svg="http://www.w3.org/2000/svg"
   xmlns="http://www.w3.org/2000/svg"
   xmlns:sodipodi="http://sodipodi.sourceforge.net/DTD/sodipodi-0.dtd"
   xmlns:inkscape="http://www.inkscape.org/namespaces/inkscape"
   enable-background="new 0 0 64 64"
   height="25"
   version="1.1"
   viewBox="0 0 25 25"
   width="25"
   xml:space="preserve"
   id="svg40"
   sodipodi:docname="mini_computer.svg"
   inkscape:version="0.92.4 (5da689c313, 2019-01-14)"><metadata
     id="metadata46"><rdf:RDF><cc:Work
         rdf:about=""><dc:format>image/svg+xml</dc:format><dc:type
           rdf:resource="http://purl.org/dc/dcmitype/StillImage" /><dc:title></dc:title></cc:Work></rdf:RDF></metadata><defs
     id="defs44" /><sodipodi:namedview
     pagecolor="#ffffff"
     bordercolor="#666666"
     borderopacity="1"
     objecttolerance="10"
     gridtolerance="10"
     guidetolerance="10"
     inkscape:pageopacity="0"
     inkscape:pageshadow="2"
     inkscape:window-width="1920"
     inkscape:window-height="1017"
     id="namedview42"
     showgrid="false"
     inkscape:zoom="3.6875"
     inkscape:cx="3.5254237"
     inkscape:cy="32"
     inkscape:window-x="-8"
     inkscape:window-y="68"
     inkscape:window-maximized="1"
     inkscape:current-layer="svg40" /><g
     id="Layer_1"
     transform="scale(0.390625)"><g
       id="g4"><circle
         cx="32"
         cy="32"
         r="32"
         id="circle2"
         style="fill:#76c2af" /></g><g
       id="g8"
       style="opacity:0.2"><path
         d="m 44,52 c 0,1.105 -0.895,2 -2,2 H 22 c -1.105,0 -2,-0.895 -2,-2 v 0 c 0,-1.105 0.895,-2 2,-2 h 20 c 1.105,0 2,0.895 2,2 z"
         id="path6"
         inkscape:connector-curvature="0"
         style="fill:#231f20" /></g><g
       id="g12"><path
         d="m 44,50 c 0,1.105 -0.895,2 -2,2 H 22 c -1.105,0 -2,-0.895 -2,-2 v 0 c 0,-1.105 0.895,-2 2,-2 h 20 c 1.105,0 2,0.895 2,2 z"
         id="path10"
         inkscape:connector-curvature="0"
         style="fill:#ffffff" /></g><g
       id="g16"><path
         d="m 37,42 c 0,0 -1,6 3,6 0,0 -20,0 -16,0 4,0 3,-6 3,-6 z"
         id="path14"
         inkscape:connector-curvature="0"
         style="fill:#e0e0d1" /></g><g
       id="g22"
       style="opacity:0.2"><g
         id="g20"><path
           d="m 52,40 c 0,2.209 -1.791,4 -4,4 H 16 c -2.209,0 -4,-1.791 -4,-4 V 18 c 0,-2.209 1.791,-4 4,-4 h 32 c 2.209,0 4,1.791 4,4 z"
           id="path18"
           inkscape:connector-curvature="0"
           style="fill:#231f20" /></g></g><g
       id="g32"><g
         id="g26"><path
           d="m 16,40.5 c -1.379,0 -2.5,-1.121 -2.5,-2.5 V 16 c 0,-1.379 1.121,-2.5 2.5,-2.5 h 32 c 1.379,0 2.5,1.121 2.5,2.5 v 22 c 0,1.379 -1.121,2.5 -2.5,2.5 z"
           id="path24"
           inkscape:connector-curvature="0"
           style="fill:#4f5d73" /></g><g
         id="g30"><path
           d="m 48,15 c 0.551,0 1,0.449 1,1 v 22 c 0,0.551 -0.449,1 -1,1 H 16 c -0.551,0 -1,-0.449 -1,-1 V 16 c 0,-0.551 0.449,-1 1,-1 h 32 m 0,-3 H 16 c -2.209,0 -4,1.791 -4,4 v 22 c 0,2.209 1.791,4 4,4 h 32 c 2.209,0 4,-1.791 4,-4 V 16 c 0,-2.209 -1.791,-4 -4,-4 z"
           id="path28"
           inkscape:connector-curvature="0"
           style="fill:#ffffff" /></g></g><g
       id="g36"
       style="opacity:0.2"><polygon
         points="26.25,13.88 41.203,39.879 50.001,39.879 50.001,13.88 "
         id="polygon34"
         style="fill:#ffffff" /></g></g><g
     id="Layer_2"
     transform="translate(0,-39)" /></svg>